<svg id="Layer_1" data-name="Layer 1" xmlns="http://www.w3.org/2000/svg" viewBox="0 0 1366 768"><defs><style>.cls-1{font-size:170px;font-family:DRAGONHUNTER, DRAGON HUNTER;}</style></defs><text id="GameGalaxy" class="cls-1" transform="translate(229.58 666.82)">FireGames</text><g id="Dragon"><path d="M773.08,306.57c16.9.18,27.28,1.23,27.28,1.23-10.74-6.69-29.75-16.37-46.3-23.06,6.51-.88,33.09-3.87,33.09-3.87s-20.06-10.21-55.09-14.61c31.16-5.29,65.84-12.85,65.84-12.85s-32.22-11.62-79.93-12.5c20.42-3.87,65-10.57,65-10.57s-22.36-6.86-61.26-4.4c4.93-6,41.72-30.1,41.72-30.1s-16-2.28-56.51,12.15c17.43-12.68,68.31-40.66,135.55-63.55-48.3-1.75-98.86,18-99.8,18.39,43.47-30.88,46-33.56,78.86-54.83-51.23,9-111.88,45.24-129.92,56.86,3.69-8.27,4.58-6.25,16-25-21.3,6.86-46.3,37.49-46.3,37.49s3.35-11,.44-17.16c-1.85,11.79-18,30.63-18,30.63s-14.17,15-21.73,30c-.88-3.43,1.14-14.61,1.14-14.61C608.71,226.08,608,241.43,608,244.61a.63.63,0,0,0,.62.63l1.87.07-14.35,18.22a16.28,16.28,0,0,0-2.55-6.34A117.54,117.54,0,0,1,584.44,278c-6.41,2.92-11.08,4.77-13.19,19.3-3.08,25.61,4,40,4,40a13.23,13.23,0,0,0,3.43-5.63c3,1,5.55,1.49,5.55,1.49s10.38,8.8,18.48,7.84c-3.34-4.4-4-7.13-4-7.13,16.1.45,23.23-1.68,26.27-3.24a3.81,3.81,0,0,0,2-3.25c.15-4,2.17-14.3,17.66-22.73,19.71-10.74,28.57-4.17,28.57-4.17.24-12.32,3.64-17,3.64-17,42.61,40.84,18,117.12-27.46,167.47,66.54-81.68,34.51-153.86,34.51-153.86,7,54.58-64.08,130.62-142.6,163.36,176,21.83,260.71-91.18,260.71-91.18s-3-20.07-13.73-37.68c9.18,3.13,23.49,6.93,23.93,7A180.65,180.65,0,0,0,773.08,306.57ZM620.33,252.12c6.57-17.73,24.76-34.51,24.76-34.51C645.56,235.92,639.93,252.33,620.33,252.12Z"/></g></svg>